Coordinates
version=1
nRows=8
nColumns=40
inDegrees=yes

Units are S.I. units (second, meters, Newtons, ...)
If the header above contains a line with 'inDegrees', this indicates whether rotational values are in degrees (yes) or radians (no).

endheader
time	pelvis_tilt	pelvis_list	pelvis_rotation	pelvis_tx	pelvis_ty	pelvis_tz	hip_flexion_r	hip_adduction_r	hip_rotation_r	knee_angle_r	knee_angle_r_beta	ankle_angle_r	subtalar_angle_r	mtp_angle_r	hip_flexion_l	hip_adduction_l	hip_rotation_l	knee_angle_l	knee_angle_l_beta	ankle_angle_l	subtalar_angle_l	mtp_angle_l	lumbar_extension	lumbar_bending	lumbar_rotation	arm_flex_r	arm_add_r	arm_rot_r	elbow_flex_r	pro_sup_r	wrist_flex_r	wrist_dev_r	arm_flex_l	arm_add_l	arm_rot_l	elbow_flex_l	pro_sup_l	wrist_flex_l	wrist_dev_l
      5.43500000	    -31.68370474	     -2.88574868	     -0.28474987	     -0.43198167	      0.69406324	     -0.93461748	     85.42426420	    -10.14877860	      3.28886851	     90.92809822	      1.58699470	     36.39244257	      0.00000000	      0.00000000	     88.53538068	    -18.21906794	      9.05963279	     89.69789827	      1.56552366	     33.47977257	      0.00000000	      0.00000000	    -18.84180298	      2.94872301	      6.28052855	     14.91849852	    -53.62660396	     82.32413600	     89.52890158	     86.56969201	      0.00000000	      0.00000000	    -10.41751070	    -49.34100578	     46.14621065	     97.49222758	     87.61228413	      0.00000000	      0.00000000
      5.44000000	    -31.38006305	     -2.73514685	     -0.29370037	     -0.43041397	      0.69626886	     -0.93468025	     84.86543217	    -10.12828885	      3.43213469	     90.69330144	      1.58289672	     36.44993030	      0.00000000	      0.00000000	     87.81848128	    -18.15429473	      8.89423506	     89.44693251	      1.56114348	     33.57348945	      0.00000000	      0.00000000	    -18.88515082	      2.78918741	      6.19510367	     14.88915664	    -53.44050292	     82.22239647	     89.29832687	     86.55413774	      0.00000000	      0.00000000	    -10.34630355	    -49.28540485	     46.12900269	     97.35800430	     87.61437193	      0.00000000	      0.00000000
      5.44500000	    -31.34946062	     -2.81648334	     -0.28715206	     -0.42909661	      0.69781939	     -0.93455205	     84.55757021	    -10.00643753	      3.41551551	     90.48015022	      1.57917653	     36.45145988	      0.00000000	      0.00000000	     87.56865239	    -18.14829770	      8.96072252	     89.23771586	      1.55749196	     33.58205485	      0.00000000	      0.00000000	    -18.56642521	      2.85678198	      6.15571976	     14.76448982	    -53.32666285	     82.22256291	     89.25991643	     86.55407665	      0.00000000	      0.00000000	    -10.39504516	    -49.27604143	     46.12373873	     97.33275710	     87.61138221	      0.00000000	      0.00000000
      5.45000000	    -31.21474513	     -2.75888546	     -0.23533266	     -0.42787638	      0.69996646	     -0.93493395	     84.13631504	    -10.01426787	      3.51231205	     90.11507041	      1.57280468	     36.41815118	      0.00000000	      0.00000000	     87.09814196	    -17.96084119	      8.95232547	     88.94711266	      1.55241998	     33.55692842	      0.00000000	      0.00000000	    -18.38967270	      2.85470463	      6.02750081	     14.74057094	    -53.23796894	     82.14905740	     89.10893096	     86.54797270	      0.00000000	      0.00000000	    -10.35630261	    -49.17999328	     46.11584356	     97.28217838	     87.60825521	      0.00000000	      0.00000000
      5.45500000	    -30.85970250	     -2.68295700	     -0.10299322	     -0.42594580	      0.70240894	     -0.93526515	     83.45389545	    -10.13479249	      3.53545335	     89.90875128	      1.56920374	     36.60236022	      0.00000000	      0.00000000	     86.30751914	    -17.74291150	      8.88155696	     88.63911544	      1.54704441	     33.73135532	      0.00000000	      0.00000000	    -18.39824716	      2.81788145	      5.79529049	     14.64166775	    -52.99453805	     81.93348613	     88.64646258	     86.52875256	      0.00000000	      0.00000000	    -10.30860565	    -49.08633828	     46.07296473	     97.04455134	     87.60039044	      0.00000000	      0.00000000
      5.46000000	    -30.75918566	     -2.60648904	     -0.09258372	     -0.42458013	      0.70468994	     -0.93536459	     83.05046343	    -10.06776566	      3.65979040	     89.55864526	      1.56309323	     36.57023475	      0.00000000	      0.00000000	     85.83684243	    -17.61880782	      8.83534693	     88.31116072	      1.54132052	     33.69994053	      0.00000000	      0.00000000	    -18.11814205	      2.75118483	      5.67148912	     14.58113241	    -52.87142628	     81.85964126	     88.62595992	     86.52984166	      0.00000000	      0.00000000	    -10.32556792	    -49.08366799	     46.08308608	     97.01568298	     87.60440539	      0.00000000	      0.00000000
      5.46500000	    -30.57184721	     -2.54931374	      0.09451038	     -0.42282269	      0.70705742	     -0.93585355	     82.52008513	    -10.22728036	      3.69311413	     89.28567869	      1.55832907	     36.68561748	      0.00000000	      0.00000000	     85.22728128	    -17.31925612	      8.78930121	     87.95355401	      1.53507911	     33.84232907	      0.00000000	      0.00000000	    -17.89418291	      2.76378023	      5.39989405	     14.38951871	    -52.67091998	     81.58177998	     88.23739653	     86.51745086	      0.00000000	      0.00000000	    -10.31688218	    -48.96027491	     46.05850745	     96.81486686	     87.60794163	      0.00000000	      0.00000000
      5.47000000	    -30.33038718	     -2.50234666	      0.18677725	     -0.42109461	      0.70982488	     -0.93599827	     81.91088030	    -10.22833175	      3.77073450	     88.91398802	      1.55184184	     36.70543583	      0.00000000	      0.00000000	     84.57025649	    -17.12198503	      8.78842713	     87.57846945	      1.52853265	     33.82758260	      0.00000000	      0.00000000	    -17.72018945	      2.73717929	      5.19877053	     14.30026964	    -52.50444640	     81.39617760	     88.05338525	     86.51372878	      0.00000000	      0.00000000	    -10.28259749	    -48.92510786	     46.07062540	     96.74094077	     87.61698617	      0.00000000	      0.00000000
